<svg xmlns="http://www.w3.org/2000/svg" viewBox="0 0 720 260"><defs><filter id="rough" x="-8%" y="-8%" width="116%" height="116%"><feTurbulence baseFrequency="0.025 0.08" numOctaves="2" seed="22" result="noise"/><feDisplacementMap in="SourceGraphic" in2="noise" scale="3"/></filter><g id="mark" fill="#281d19" filter="url(#rough)"><path d="M20 121c-1-27 32-39 72-28 18 5 29 0 33-17 5-19-3-37 5-52 7-14 25-20 39-12 9 5 13 14 12 25l28 9-29 13c-6 7-5 18 2 29 11 17 18 32 11 43-8 12-25 10-42 0l-17-10c-25 28-91 30-114 0Z"/><path d="M61 139l-5 21 22-2 4-18zM116 139l1 20 23 1-7-23z"/><circle cx="165" cy="29" r="3.5" fill="#fff" filter="none"/></g></defs><g transform="translate(22 49)"><use href="#mark"/></g><g fill="#281d19" font-family="Bradley Hand, Comic Sans MS, cursive"><text x="260" y="107" font-size="37" letter-spacing="2">goose!</text><text x="367" y="151" font-size="37" letter-spacing="2">goose!</text><text x="475" y="195" font-size="43" letter-spacing="3">cook!</text></g><path d="M254 119c64 5 115 2 168-5M362 163c60 6 113 2 165-5" fill="none" stroke="#281d19" stroke-width="5" stroke-linecap="round" filter="url(#rough)"/></svg>
